# xmcd CD database file
#
# Track frame offsets:
#	150
#	15617
#	36535
#	63106
#	80221
#
# Disc length: 1422 seconds
#
# Revision: 0
# Processed by: cddbd v1.5.1PL2 Copyright (c) Steve Scherf et al.
# Submitted via: CDex 1.51
#
DISCID=3c058c05
DTITLE=Little Buck - I'mma Stir It Up
DYEAR=2005
DGENRE=Rhythmic Soul
TTITLE0=I'mma Stir It Up
TTITLE1=If You Don't Love Him
TTITLE2=Between the Sheets
TTITLE3=Yum-Yum Man
TTITLE4=When I Was Sad
EXTD=YEAR: 2005
EXTT0=
EXTT1=
EXTT2=
EXTT3=
EXTT4=
PLAYORDER=
